HIERARCHY
ROOT hip
{
  OFFSET 0 0 0
  CHANNELS 6 Xposition Yposition Zposition Zrotation Yrotation Xrotation
  JOINT abdomen
  {
    OFFSET 0 20.6881 -0.73152
    CHANNELS 3 Zrotation Xrotation Yrotation
    JOINT chest
    {
      OFFSET 0 11.7043 -0.48768
      CHANNELS 3 Zrotation Xrotation Yrotation
      JOINT neck
      {
        OFFSET 0 22.1894 -2.19456
        CHANNELS 3 Zrotation Xrotation Yrotation
        JOINT head
        {
          OFFSET -0.24384 7.07133 1.2192
          CHANNELS 3 Zrotation Xrotation Yrotation
          JOINT leftEye
          {
            OFFSET 4.14528 8.04674 8.04672
            CHANNELS 3 Zrotation Xrotation Yrotation
            End Site
            {
              OFFSET 1 0 0
            }
          }
          JOINT rightEye
          {
            OFFSET -3.6576 8.04674 8.04672
            CHANNELS 3 Zrotation Xrotation Yrotation
            End Site
            {
              OFFSET 1 0 0
            }
          }
        }
      }
      JOINT rCollar
      {
        OFFSET -2.68224 19.2634 -4.8768
        CHANNELS 3 Zrotation Xrotation Yrotation
        JOINT rShldr
        {
          OFFSET -8.77824 -1.95073 1.46304
          CHANNELS 3 Zrotation Xrotation Yrotation
          JOINT rForeArm
          {
            OFFSET -28.1742 -1.7115 0.48768
            CHANNELS 3 Zrotation Xrotation Yrotation
            JOINT rHand
            {
              OFFSET -22.5879 0.773209 7.07136
              CHANNELS 3 Zrotation Xrotation Yrotation
              JOINT rThumb1
              {
                OFFSET -1.2192 -0.487915 3.41376
                CHANNELS 3 Zrotation Xrotation Yrotation
                JOINT rThumb2
                {
                  OFFSET -3.37035 -0.52449 3.41376
                  CHANNELS 3 Zrotation Xrotation Yrotation
                  End Site
                  {
                    OFFSET -1.78271 -1.18214 1.43049
                  }
                }
              }
              JOINT rIndex1
              {
                OFFSET -7.75947 0.938293 5.60832
                CHANNELS 3 Zrotation Xrotation Yrotation
                JOINT rIndex2
                {
                  OFFSET -2.54057 -0.884171 1.56538
                  CHANNELS 3 Zrotation Xrotation Yrotation
                  End Site
                  {
                    OFFSET -1.62519 -0.234802 1.16502
                  }
                }
              }
              JOINT rMid1
              {
                OFFSET -8.24714 1.18213 3.41376
                CHANNELS 3 Zrotation Xrotation Yrotation
                JOINT rMid2
                {
                  OFFSET -3.10165 -0.590103 1.0647
                  CHANNELS 3 Zrotation Xrotation Yrotation
                  End Site
                  {
                    OFFSET -2.48547 -0.328903 0.83742
                  }
                }
              }
              JOINT rRing1
              {
                OFFSET -8.82822 0.546677 1.51678
                CHANNELS 3 Zrotation Xrotation Yrotation
                JOINT rRing2
                {
                  OFFSET -2.60934 -0.819778 -0.0198488
                  CHANNELS 3 Zrotation Xrotation Yrotation
                  End Site
                  {
                    OFFSET -2.33842 -0.294052 0.168128
                  }
                }
              }
              JOINT rPinky1
              {
                OFFSET -8.27202 -0.0477905 -0.4584
                CHANNELS 3 Zrotation Xrotation Yrotation
                JOINT rPinky2
                {
                  OFFSET -1.82734 -0.647385 -0.700984
                  CHANNELS 3 Zrotation Xrotation Yrotation
                  End Site
                  {
                    OFFSET -1.69225 -0.51767 -0.607171
                  }
                }
              }
            }
          }
        }
      }
      JOINT lCollar
      {
        OFFSET 2.68224 19.2634 -4.8768
        CHANNELS 3 Zrotation Xrotation Yrotation
        JOINT lShldr
        {
          OFFSET 8.77824 -1.95073 1.46304
          CHANNELS 3 Zrotation Xrotation Yrotation
          JOINT lForeArm
          {
            OFFSET 28.1742 -1.7115 0.48768
            CHANNELS 3 Zrotation Xrotation Yrotation
            JOINT lHand
            {
              OFFSET 22.5879 0.773209 7.07136
              CHANNELS 3 Zrotation Xrotation Yrotation
              JOINT lThumb1
              {
                OFFSET 1.2192 -0.487915 3.41376
                CHANNELS 3 Zrotation Xrotation Yrotation
                JOINT lThumb2
                {
                  OFFSET 3.37035 -0.52449 3.41376
                  CHANNELS 3 Zrotation Xrotation Yrotation
                  End Site
                  {
                    OFFSET 1.78271 -1.18214 1.43049
                  }
                }
              }
              JOINT lIndex1
              {
                OFFSET 7.75947 0.938293 5.60832
                CHANNELS 3 Zrotation Xrotation Yrotation
                JOINT lIndex2
                {
                  OFFSET 2.54057 -0.884171 1.56538
                  CHANNELS 3 Zrotation Xrotation Yrotation
                  End Site
                  {
                    OFFSET 1.62519 -0.234802 1.16502
                  }
                }
              }
              JOINT lMid1
              {
                OFFSET 8.24714 1.18213 3.41376
                CHANNELS 3 Zrotation Xrotation Yrotation
                JOINT lMid2
                {
                  OFFSET 3.10165 -0.590103 1.0647
                  CHANNELS 3 Zrotation Xrotation Yrotation
                  End Site
                  {
                    OFFSET 2.48547 -0.328903 0.83742
                  }
                }
              }
              JOINT lRing1
              {
                OFFSET 8.82822 0.546677 1.51678
                CHANNELS 3 Zrotation Xrotation Yrotation
                JOINT lRing2
                {
                  OFFSET 2.60934 -0.819778 -0.0198488
                  CHANNELS 3 Zrotation Xrotation Yrotation
                  End Site
                  {
                    OFFSET 2.33842 -0.294052 0.168128
                  }
                }
              }
              JOINT lPinky1
              {
                OFFSET 8.27202 -0.0477905 -0.4584
                CHANNELS 3 Zrotation Xrotation Yrotation
                JOINT lPinky2
                {
                  OFFSET 1.82734 -0.647385 -0.700984
                  CHANNELS 3 Zrotation Xrotation Yrotation
                  End Site
                  {
                    OFFSET 1.69225 -0.51767 -0.607171
                  }
                }
              }
            }
          }
        }
      }
    }
  }
  JOINT rButtock
  {
    OFFSET -8.77824 4.35084 1.2192
    CHANNELS 3 Zrotation Xrotation Yrotation
    JOINT rThigh
    {
      OFFSET 0 -1.70687 -2.19456
      CHANNELS 3 Zrotation Xrotation Yrotation
      JOINT rShin
      {
        OFFSET 0 -36.8199 0.73152
        CHANNELS 3 Zrotation Xrotation Yrotation
        JOINT rFoot
        {
          OFFSET 0.73152 -45.1104 -5.12064
          CHANNELS 3 Zrotation Xrotation Yrotation
          End Site
          {
            OFFSET -1.1221 -3.69964 12.103
          }
        }
      }
    }
  }
  JOINT lButtock
  {
    OFFSET 8.77824 4.35084 1.2192
    CHANNELS 3 Zrotation Xrotation Yrotation
    JOINT lThigh
    {
      OFFSET 0 -1.70687 -2.19456
      CHANNELS 3 Zrotation Xrotation Yrotation
      JOINT lShin
      {
        OFFSET 0 -36.8199 0.73152
        CHANNELS 3 Zrotation Xrotation Yrotation
        JOINT lFoot
        {
          OFFSET -0.73152 -45.1104 -5.12064
          CHANNELS 3 Zrotation Xrotation Yrotation
          End Site
          {
            OFFSET 1.1221 -3.69964 12.103
          }
        }
      }
    }
  }
}
MOTION
Frames:	4
Frame Time:	0.00833333
290.045 82.6431 -147.884 0.0 0.0 0.0 -2.59965 0.000366001 -0.0702749 -0.716705 0.01229 -0.12403 -7.4348e-14 -7.95139e-16 2.98177e-16 -2.22033e-13 -6.36111e-15 9.4578e-16 -0.0 0.0 0.0 -0.0 0.0 0.0 -3.69773e-14 -1.355e-16 3.47873e-16 -7.75075e-13 -2.72708e-15 1.59028e-15 -1.33808e-11 3.92222e-12 1.74931e-13 -1.5332e-10 -4.49499e-12 3.91208e-13 -3.61623e-10 -1.24544e-12 1.2754e-12 -6.24508e-10 -2.15642e-12 2.21526e-12 -3.61618e-10 -1.2428e-12 1.26268e-12 7.73091 5.47488 0.417314 -3.61621e-10 -1.24509e-12 1.28176e-12 2.90554 0.965183 0.102902 -3.61615e-10 -1.24489e-12 1.27699e-12 10.2786 0.731801 0.0259123 -3.61621e-10 -1.2432e-12 1.2754e-12 2.22167 -0.733487 -0.20892 -3.69731e-14 -1.30841e-16 4.96962e-17 -7.79477e-13 -2.14936e-15 -3.97569e-16 -1.3418e-11 -4.08681e-12 1.84472e-13 -1.53307e-10 3.53852e-12 3.97569e-13 -3.61667e-10 -1.19715e-12 1.28176e-12 -6.24571e-10 -2.06736e-12 2.21923e-12 -3.61673e-10 -1.19509e-12 1.28812e-12 -7.73091 5.47488 -0.417314 -3.61668e-10 -1.19668e-12 1.2754e-12 -2.90554 0.965183 -0.102902 -3.61676e-10 -1.19629e-12 1.2762e-12 -10.2786 0.731801 -0.0259123 -3.61666e-10 -1.19708e-12 1.2595e-12 -2.22167 -0.733487 0.20892 -2.03217e-16 0.0 -3.88251e-19 -1.5008 -1.93106 0.00776779 -0.00872208 -2.07863 -0.0717191 -0.472723 3.99921 0.13452 2.03217e-16 0.0 3.88251e-19 -2.4504 -8.43847 0.261207 -0.00685707 9.70809 -0.175599 0.52318 -1.28002 -0.0328303
283.465 81.6931 -150.997 -6.0168 -58.8792 2.5146 -2.26367 0.876874 -0.923529 -0.676795 1.12732 -0.403289 0.641793 3.29085 0.818765 -2.77661 -4.19331 1.15192 -0.0 0.0 0.0 -0.0 0.0 0.0 -2.22327e-14 -4.03107e-14 -1.15985e-13 21.6573 4.41847 -0.145082 -4.13368 -1.86131 6.47474 0.000230455 0.356101 0.0500436 4.06792e-10 2.31707e-10 -7.42097e-10 7.03423e-10 4.01082e-10 -1.28677e-09 4.06799e-10 2.31707e-10 -7.42106e-10 7.73091 5.47488 0.417314 4.06795e-10 2.31705e-10 -7.4209e-10 2.90554 0.965183 0.102902 4.06803e-10 2.31705e-10 -7.42094e-10 10.2786 0.731801 0.0259123 4.06794e-10 2.31707e-10 -7.42094e-10 2.22167 -0.733487 -0.20892 -2.22542e-14 -4.03099e-14 -1.16256e-13 -15.5946 14.3554 -9.47438 29.363 -26.4582 -12.6351 -0.0588134 -5.38429 0.7447 -7.98076e-10 4.65239e-10 -3.07607e-10 -1.3742e-09 8.09025e-10 -5.41043e-10 -7.98079e-10 4.65241e-10 -3.07601e-10 -7.73091 5.47488 -0.417314 -7.98076e-10 4.65241e-10 -3.07613e-10 -2.90554 0.965183 -0.102902 -7.98083e-10 4.65241e-10 -3.07612e-10 -10.2786 0.731801 -0.0259123 -7.98074e-10 4.65242e-10 -3.07627e-10 -2.22167 -0.733487 0.20892 -2.03217e-16 0.0 -3.88251e-19 -0.693525 -4.74983 1.02103 0.030281 8.09668 0.121938 -0.974644 -2.42077 -3.57082 2.03217e-16 0.0 3.88251e-19 -1.177 -8.4837 3.74062 -0.0174525 15.5255 -0.260302 0.846469 -6.26854 2.19626
283.462 81.6944 -151.05 -5.9594 -59.0179 2.481 -1.88395 1.80178 -1.82519 -0.622417 2.30715 -0.698671 1.21365 6.77433 1.69268 -5.52341 -8.62429 2.3896 -0.0 0.0 0.0 -0.0 0.0 0.0 -4.62335e-15 -8.39685e-14 -2.55233e-13 44.5787 9.07909 -0.304075 -8.04198 -3.74456 13.33 -0.000226065 0.745902 0.10483 1.27299e-09 5.00568e-10 -1.60388e-09 2.20036e-09 8.66477e-10 -2.78099e-09 1.273e-09 5.00565e-10 -1.60389e-09 7.73091 5.47488 0.417314 1.273e-09 5.00563e-10 -1.60388e-09 2.90554 0.965183 0.102902 1.27301e-09 5.00565e-10 -1.60388e-09 10.2786 0.731801 0.0259123 1.27299e-09 5.00566e-10 -1.60388e-09 2.22167 -0.733487 -0.20892 -4.67322e-15 -8.39719e-14 -2.55476e-13 -26.4039 28.1364 -21.5912 42.2771 -49.3836 -37.2062 0.0338709 -11.0811 1.55524 -1.30196e-09 9.99117e-10 -6.61473e-10 -2.23967e-09 1.73735e-09 -1.16333e-09 -1.30196e-09 9.9912e-10 -6.61468e-10 -7.73091 5.47488 -0.417314 -1.30196e-09 9.99119e-10 -6.61479e-10 -2.90554 0.965183 -0.102902 -1.30196e-09 9.99121e-10 -6.61477e-10 -10.2786 0.731801 -0.0259123 -1.30195e-09 9.99122e-10 -6.61491e-10 -2.22167 -0.733487 0.20892 -2.03217e-16 0.0 -3.88251e-19 0.267811 -7.72579 2.10201 -0.00656681 18.8567 0.342558 -2.41587 -9.14241 -7.57939 2.03217e-16 0.0 3.88251e-19 0.179216 -8.4982 7.43019 -0.0082902 21.678 -0.358295 1.61347 -11.5141 4.60064
283.436 81.6927 -151.1 -5.9285 -59.1507 2.4921 -1.51335 2.62746 -2.63248 -0.564315 3.357 -0.963227 1.63971 9.86444 2.48907 -7.8138 -12.5593 3.5311 -0.0 0.0 0.0 -0.0 0.0 0.0 7.25636e-15 -1.20661e-13 -3.48652e-13 65.0407 13.2551 -0.44583 -11.1613 -5.29929 19.5006 -0.00117508 1.0683 0.150154 1.94362e-09 6.97611e-10 -2.22884e-09 3.35928e-09 1.20756e-09 -3.86474e-09 1.94363e-09 6.97606e-10 -2.22884e-09 7.73091 5.47488 0.417314 1.94363e-09 6.97604e-10 -2.22883e-09 2.90554 0.965183 0.102902 1.94364e-09 6.97606e-10 -2.22884e-09 10.2786 0.731801 0.0259123 1.94362e-09 6.97607e-10 -2.22883e-09 2.22167 -0.733487 -0.20892 7.18361e-15 -1.20668e-13 -3.48869e-13 -30.1092 37.731 -35.7591 30.9457 -55.099 -76.9798 0.257997 -16.1417 2.31558 -1.6709e-09 1.39811e-09 -9.25385e-10 -2.87346e-09 2.43121e-09 -1.62757e-09 -1.67089e-09 1.39811e-09 -9.2538e-10 -7.73091 5.47488 -0.417314 -1.67089e-09 1.39812e-09 -9.2539e-10 -2.90554 0.965183 -0.102902 -1.6709e-09 1.39812e-09 -9.25388e-10 -10.2786 0.731801 -0.0259123 -1.67089e-09 1.39812e-09 -9.25401e-10 -2.22167 -0.733487 0.20892 -2.03217e-16 0.0 -3.88251e-19 1.22443 -10.3749 3.08758 -0.119257 28.4462 0.574929 -4.51947 -14.9891 -11.3628 2.03217e-16 0.0 3.88251e-19 1.38468 -8.47971 10.7005 0.0199798 27.1598 -0.45659 2.69607 -16.1481 6.88802
